<mxfile host="app.diagrams.net" modified="2020-05-06T00:50:58.776Z" agent="5.0 (Windows NT 10.0; Win64; x64) AppleWebKit/537.36 (KHTML, like Gecko) Chrome/81.0.4044.129 Safari/537.36" etag="HdNJQjPTOW7mJEJ1U0hR" version="13.0.8" type="github">
  <diagram id="sHmRfFHm7IZxkpaGnCNq" name="第 1 页">
    <mxGraphModel dx="1422" dy="762" grid="1" gridSize="10" guides="1" tooltips="1" connect="1" arrows="1" fold="1" page="1" pageScale="1" pageWidth="1920" pageHeight="1200" math="0" shadow="0">
      <root>
        <mxCell id="0" />
        <mxCell id="1" parent="0" />
        <mxCell id="DtPgo_CMIsU83iQd-foz-3" style="edgeStyle=orthogonalEdgeStyle;rounded=0;orthogonalLoop=1;jettySize=auto;html=1;exitX=1;exitY=0.5;exitDx=0;exitDy=0;" edge="1" parent="1" source="DtPgo_CMIsU83iQd-foz-1" target="DtPgo_CMIsU83iQd-foz-2">
          <mxGeometry relative="1" as="geometry" />
        </mxCell>
        <mxCell id="DtPgo_CMIsU83iQd-foz-1" value="指标配置" style="rounded=0;whiteSpace=wrap;html=1;" vertex="1" parent="1">
          <mxGeometry x="370" y="130" width="120" height="60" as="geometry" />
        </mxCell>
        <mxCell id="DtPgo_CMIsU83iQd-foz-5" style="edgeStyle=orthogonalEdgeStyle;rounded=0;orthogonalLoop=1;jettySize=auto;html=1;" edge="1" parent="1" source="DtPgo_CMIsU83iQd-foz-2" target="DtPgo_CMIsU83iQd-foz-4">
          <mxGeometry relative="1" as="geometry" />
        </mxCell>
        <mxCell id="DtPgo_CMIsU83iQd-foz-2" value="解析指标sql&lt;br&gt;列出字段规则" style="rounded=0;whiteSpace=wrap;html=1;" vertex="1" parent="1">
          <mxGeometry x="630" y="130" width="90" height="60" as="geometry" />
        </mxCell>
        <mxCell id="DtPgo_CMIsU83iQd-foz-7" style="edgeStyle=orthogonalEdgeStyle;rounded=0;orthogonalLoop=1;jettySize=auto;html=1;" edge="1" parent="1" source="DtPgo_CMIsU83iQd-foz-4" target="DtPgo_CMIsU83iQd-foz-6">
          <mxGeometry relative="1" as="geometry" />
        </mxCell>
        <mxCell id="DtPgo_CMIsU83iQd-foz-8" value="指标运行&lt;br&gt;" style="edgeLabel;html=1;align=center;verticalAlign=middle;resizable=0;points=[];" vertex="1" connectable="0" parent="DtPgo_CMIsU83iQd-foz-7">
          <mxGeometry x="-0.168" y="3" relative="1" as="geometry">
            <mxPoint as="offset" />
          </mxGeometry>
        </mxCell>
        <mxCell id="DtPgo_CMIsU83iQd-foz-4" value="指标配置告警" style="rounded=0;whiteSpace=wrap;html=1;" vertex="1" parent="1">
          <mxGeometry x="615" y="340" width="120" height="60" as="geometry" />
        </mxCell>
        <mxCell id="DtPgo_CMIsU83iQd-foz-6" value="列出指标结果，&lt;br&gt;列出规则" style="rounded=0;whiteSpace=wrap;html=1;" vertex="1" parent="1">
          <mxGeometry x="860" y="340" width="120" height="60" as="geometry" />
        </mxCell>
      </root>
    </mxGraphModel>
  </diagram>
</mxfile>
